<?xml version="1.0" encoding="utf-8"?>
<!-- Generator: Adobe Illustrator 27.2.0, SVG Export Plug-In . SVG Version: 6.00 Build 0)  -->
<svg version="1.1" id="Capa_1" xmlns="http://www.w3.org/2000/svg" xmlns:xlink="http://www.w3.org/1999/xlink" x="0px" y="0px"
	 viewBox="0 0 31.2 31.2" style="enable-background:new 0 0 31.2 31.2;" xml:space="preserve">
<style type="text/css">
	.st0{fill:#FFFFFF;}
	.st1{fill:#472B29;}
	.st2{fill:#F1BC19;}
	.st3{fill:#C29B67;}
</style>
<g>
	<path class="st0" d="M12.7,24.9c0,0-1.9,0.3-3.1,0.7c-0.3,0.7-0.8,2.2-1.1,3.1C8.5,28.8,8.7,29.1,9,29l3-1.1L12.7,24.9z"/>
	<path class="st1" d="M9,29.3c-0.2,0-0.3-0.1-0.5-0.2c-0.2-0.2-0.2-0.4-0.2-0.7L8.4,28c0.3-0.9,0.7-2,1-2.7l0.1-0.2l0.2-0.1
		c1.1-0.4,3-0.7,3.1-0.7l0.5-0.1l-1,3.7l-3.2,1.1C9.1,29.3,9,29.3,9,29.3z M9.9,25.8c-0.2,0.7-0.6,1.7-0.9,2.5L9,28.6l2.7-1l0.6-2.4
		C11.6,25.4,10.7,25.6,9.9,25.8z"/>
	<path class="st0" d="M15.1,26.5c0,0,1.1,1.4,1.5,4c0.1,0.3,0.3,0.4,0.6,0.3c2.1-0.8,5.7-2,5.7-3.2c0-1.4-0.8-3.1-0.8-3.1
		C21.4,25.5,18.1,26,15.1,26.5z"/>
	<path class="st1" d="M17.1,31.2c-0.1,0-0.3,0-0.4-0.1c-0.2-0.1-0.3-0.3-0.4-0.5c-0.5-2.5-1.5-3.9-1.5-3.9l-0.3-0.4L16,26
		c2.5-0.5,5.3-1,5.9-1.6l0.4-0.4l0.2,0.5c0,0.1,0.8,1.7,0.8,3.2c0,1.1-2.2,2.1-5.2,3.2c-0.3,0.1-0.6,0.2-0.9,0.3
		C17.2,31.2,17.2,31.2,17.1,31.2z M15.7,26.8c0.4,0.7,1,1.9,1.3,3.7c0,0,0,0,0,0.1c0.3-0.1,0.6-0.2,1-0.3c1.6-0.6,4.7-1.7,4.7-2.6
		c0-1-0.4-2-0.6-2.5c-1.1,0.7-3.3,1.1-5.9,1.5H15.7z"/>
	<path class="st2" d="M11.2,28c0.2-0.4,0.6-1.4,1.3-3.8v-0.1V24c-0.6-1.4-0.9-2.9-1.1-4.1c-0.4-1.6-0.7-3.1-1.5-3.9l0,0l0,0
		c-0.9-0.5-0.7-1.2-0.5-1.6l0.1-0.2L9.4,14c-0.4-0.5-0.5-1.1-0.5-1.6c0-0.8,0.3-1.5,1-2l0.1-0.1v-0.1c0-0.2,0-0.4-0.1-0.6
		c-0.4-0.7,0.9-1.4,0.9-1.5L10.8,8l1-2.5c1-2.3,3-3.6,5.5-3.6c2.2,0,4.3,1.1,5.5,2.7c0.9,1.1,1.6,3.2,0.7,6l-0.4,1.1
		c-0.6,1.6-1,3-1.2,4.1l-0.1,0.3l0.2,0.1c0.5,0.3,0.8,0.8,0.8,1.3c0,0.8-0.6,1.4-1.3,1.5h-0.3v0.3c-0.2,1.6-0.2,3.2,0,5.8
		c-1.5,0.7-3.5,1.1-5.9,1.3h-0.1L12,29.9L11.2,28z"/>
	<path class="st1" d="M17.2,2.2c2.1,0,4.1,1,5.3,2.5c1.1,1.5,1.3,3.5,0.7,5.7l-0.5,1.2c-0.6,1.6-1,3-1.2,4.1l-0.1,0.5l0.5,0.3
		c0.4,0.2,0.6,0.7,0.6,1.1c0,0.6-0.5,1.1-1.1,1.2L20.8,19l-0.1,0.5c-0.2,1.5-0.2,3.2,0,5.6c-1.5,0.6-3.3,1-5.5,1.2h-0.3l-0.2,0.2
		l-2.6,3L11.6,28c0.3-0.6,0.7-1.6,1.3-3.7l0.1-0.2L13,23.9c-0.6-1.4-0.9-2.8-1.1-4c-0.4-1.7-0.7-3.2-1.6-4.1l-0.1-0.1H10
		c-0.6-0.3-0.5-0.9-0.4-1.2l0.1-0.4l-0.2-0.3c-0.3-0.4-0.5-1-0.5-1.4c0-0.7,0.3-1.3,0.8-1.8l0.2-0.2v-0.3c0-0.3,0-0.5-0.1-0.8
		C9.7,9,10.3,8.4,10.7,8.3l0.2-0.1L11,8l1-2.4C12.8,3.6,14.7,2.2,17.2,2.2 M17.2,1.6c-2.4,0-4.9,1.2-5.9,3.9l-1,2.4c0,0-1.4,1-1,1.9
		c0.1,0.1,0.1,0.2,0.1,0.3c-0.7,0.6-1.1,1.3-1.1,2.3c0,0.7,0.2,1.3,0.6,1.8c-0.2,0.7-0.2,1.5,0.7,2c1.4,1.3,1.2,4.5,2.6,7.8
		c-1.1,3.5-1.4,3.8-1.4,3.8l0,0l0.8,2.4c0,0.1,0.2,0.2,0.3,0.2c0.1,0,0.2,0,0.2-0.1l3.1-3.3c2.3-0.3,4.4-0.7,6.2-1.4
		c-0.2-2.6-0.2-4.3,0-6c1-0.1,1.7-1,1.7-1.9c0-0.7-0.4-1.3-1-1.6c0.4-1.4,1-3.1,1.6-5.3C25.5,5,21.3,1.6,17.2,1.6L17.2,1.6z"/>
	<path class="st2" d="M9.2,14.1c-0.4-0.5-0.6-1.1-0.6-1.7c0-1.3,1-2.5,2.2-2.8c0.7-0.1,1.5-0.1,2,0.3c0.9,0.5,1.4,1.4,1.4,2.5
		c0,0.7-0.2,1.2-0.6,1.7c-0.5,0.8-1.3,1.1-2.3,1.1"/>
	<path class="st0" d="M8.6,12.5c0,0.7,0.2,1.2,0.6,1.7l0,0c0.9-1.3,4.6,0,4.6,0L13.5,12c-1.9-1.1-4.3-0.8-4.6-0.8
		C8.8,11.6,8.6,12,8.6,12.5z"/>
	<path class="st1" d="M9.3,14.4C9.3,14.4,9.2,14.4,9.3,14.4c-0.1,0-0.2,0-0.2-0.1c-0.4-0.6-0.7-1.2-0.7-1.9c0-0.5,0.1-0.9,0.3-1.3
		c0-0.1,0.1-0.1,0.2-0.1c0.3,0,2.7-0.4,4.7,0.8c0.1,0,0.1,0.1,0.1,0.2l0.3,2.2c0,0.1,0,0.2-0.1,0.2c-0.1,0.1-0.2,0.1-0.2,0
		c-1-0.4-3.6-1.1-4.2-0.1C9.4,14.4,9.4,14.4,9.3,14.4z M10.8,13.3c1,0,2.1,0.3,2.7,0.5l-0.2-1.7c-1.7-1-3.6-0.8-4.2-0.7
		c-0.1,0.3-0.2,0.7-0.2,1c0,0.5,0.1,1,0.4,1.3C9.6,13.4,10.2,13.3,10.8,13.3z"/>
	<path class="st1" d="M8.6,12.6c-0.1,0-0.2-0.1-0.2-0.2c0-1.4,1-2.7,2.4-3.1c0.1,0,0.3,0.1,0.3,0.2S11,9.9,10.9,9.9
		c-1.1,0.3-2,1.3-2,2.6C8.9,12.6,8.8,12.6,8.6,12.6z"/>
	<path class="st1" d="M13.9,11.1c-0.1,0-0.2,0-0.2-0.1c-0.2-0.4-0.6-0.7-1-0.9c-0.1-0.1-0.2-0.2-0.1-0.3c0.1-0.1,0.2-0.2,0.3-0.1
		c0.5,0.3,0.9,0.6,1.1,1.1C14.1,10.9,14,11.1,13.9,11.1C14,11,13.9,11.1,13.9,11.1z"/>
	<path class="st1" d="M16.5,16c-1.8,0-3.3-1.5-3.3-3.3c0-1.4,1-2.8,2.3-3.2c0.1,0,0.3,0,0.3,0.2c0,0.1,0,0.3-0.2,0.3
		c-1.1,0.4-2,1.4-2,2.8c0,1.6,1.2,2.9,2.9,2.9s2.9-1.2,2.9-2.9c0-0.8-0.3-1.5-0.9-2c-0.1-0.1-0.1-0.3,0-0.4s0.3-0.1,0.4,0
		c0.7,0.7,1,1.4,1,2.4C19.9,14.5,18.3,16,16.5,16z"/>
	<path class="st0" d="M13.6,11.7c-0.1,0.3-0.2,0.7-0.2,1c0,1.7,1.4,3.1,3.1,3.1s3-1.2,3.1-2.9C18.3,12.3,16,11.4,13.6,11.7z"/>
	<path class="st1" d="M16.5,16c-1.8,0-3.3-1.5-3.3-3.3c0-0.4,0.1-0.7,0.2-1.1c0-0.1,0.1-0.2,0.2-0.2c2.6-0.3,5,0.7,6.2,1.1
		c0.1,0,0.1,0.1,0.1,0.2C19.8,14.7,18.2,16,16.5,16z M13.7,11.9c-0.1,0.3-0.1,0.5-0.1,0.8c0,1.6,1.2,2.9,2.9,2.9
		c1.4,0,2.7-1.1,2.9-2.5C18.2,12.5,16,11.7,13.7,11.9z"/>
	<path class="st3" d="M15.1,25.5c0,0,3.7-0.6,3.7-4.3c-0.1-3.8-3.7-4.7-5.2-4.6c-2.3-0.1-3.1-0.2-3.9-0.5c0,0-1.8,1.2-1.8,3.6
		c-0.9,0.4-1,1.9,0.5,2.4s1.9,0.5,1.9,0.5s0,1,1,1C11.7,24.1,12.7,25.5,15.1,25.5z"/>
	<path class="st1" d="M15.1,25.8c-2.2,0-3.2-1.1-3.8-1.8c0-0.1-0.1-0.1-0.1-0.1c-0.8,0-1-0.6-1.1-1c-0.3,0-0.9-0.2-1.8-0.5
		c-1-0.3-1.2-1.1-1.2-1.5s0.2-1,0.7-1.2c0.1-2.4,1.8-3.6,1.9-3.7c0.1,0,0.2-0.1,0.2,0c0.8,0.3,1.4,0.4,3.8,0.5c0.9,0,2.7,0.3,4,1.5
		c0.9,0.9,1.3,2,1.3,3.3C19.1,25.2,15.2,25.7,15.1,25.8C15.1,25.7,15.1,25.8,15.1,25.8z M9.7,16.5c-0.4,0.3-1.6,1.4-1.6,3.3
		C8.1,19.9,8,20,7.9,20c-0.3,0.1-0.5,0.5-0.5,0.9c0,0.5,0.4,1,1,1.1c1.3,0.5,1.8,0.5,1.8,0.5c0.1,0,0.2,0.1,0.2,0.2
		c0,0.1,0,0.8,0.8,0.8c0.1,0,0.1,0,0.2,0.1s0.1,0.1,0.2,0.2c0.5,0.6,1.4,1.6,3.4,1.6c0.3,0,3.5-0.7,3.4-4c0-1.2-0.5-2.2-1.2-3
		c-1.2-1.1-3-1.4-3.7-1.3C11.3,16.8,10.6,16.7,9.7,16.5z"/>
	<path class="st1" d="M10.9,23c-0.1,0-0.2,0-0.4,0c-0.1,0-0.2-0.1-0.2-0.3c0-0.2,0.1-0.2,0.3-0.2c1.4,0,2.9-0.1,4-0.3
		c0.1,0,0.3,0.1,0.3,0.2c0,0.1-0.1,0.3-0.2,0.3C13.5,22.8,12.2,23,10.9,23z"/>
	<path class="st1" d="M15.6,22.4c-0.1,0-0.2-0.1-0.2-0.2c0-0.1,0-0.3,0.2-0.3c0.9-0.2,1.3-0.5,1.3-0.5c0.1-0.1,0.3,0,0.3,0.1
		c0.1,0.1,0,0.3-0.1,0.3C17,21.9,16.5,22.1,15.6,22.4L15.6,22.4z"/>
	<path class="st1" d="M17.4,22.4c-0.1,0-0.2-0.1-0.2-0.2c0-0.7-1.1-1-1.1-1c-0.1,0-0.2-0.2-0.2-0.3c0-0.1,0.2-0.2,0.3-0.2
		c0.1,0,1.3,0.4,1.4,1.3C17.7,22.3,17.6,22.4,17.4,22.4L17.4,22.4z"/>
	<path class="st1" d="M20.5,4.6C20.4,4.6,20.4,4.6,20.5,4.6c-0.1,0-0.1-0.1-0.1-0.2c0,0,0.7-3-0.8-3.8c-0.1,0-0.1-0.1,0-0.2
		s0.1-0.1,0.2,0c1.6,1.1,1,4,1,4.1C20.6,4.6,20.5,4.6,20.5,4.6z"/>
	<path class="st1" d="M17,0.6C17,0.6,16.9,0.6,17,0.6c-0.1-0.2-0.1-0.2,0-0.3C17.6,0,18.2-0.1,19,0c0.1,0,0.1,0.1,0.1,0.1
		c0,0.1-0.1,0.1-0.1,0.1C18.2,0.2,17.6,0.3,17,0.6L17,0.6z"/>
	<path class="st1" d="M15.6,2.2L15.6,2.2c-0.1,0-0.1-0.1-0.1-0.2c0,0,0.2-0.7,0.8-1.2c0,0,0.1,0,0.2,0c0,0,0,0.1,0,0.2
		C15.9,1.5,15.7,2.1,15.6,2.2C15.7,2.2,15.7,2.2,15.6,2.2z"/>
	<path class="st1" d="M22.4,5.7L22.4,5.7c-0.1,0-0.1-0.1-0.1-0.2c0.6-2.2-0.2-3.6-1.1-4c-0.8-0.4-1.6-0.1-2.2,0.8
		c0,0.1-0.1,0.1-0.2,0c-0.1,0-0.1-0.1,0-0.2c0.7-0.9,1.7-1.2,2.6-0.8c1.1,0.5,1.8,2,1.2,4.3C22.5,5.7,22.5,5.7,22.4,5.7z"/>
	<path class="st1" d="M20,16.9c-0.1,0-0.1,0-0.2-0.1c-0.1-0.1-0.1-0.3,0-0.4c0,0,1-0.8,1.9-0.4c0.1,0.1,0.2,0.2,0.1,0.3
		c0,0.2-0.2,0.3-0.3,0.2C20.8,16.2,20.1,16.8,20,16.9C20.1,16.9,20,16.9,20,16.9z"/>
	<path class="st1" d="M20.8,19.4c-0.5,0-0.9-0.2-1.1-0.4c-0.1-0.1-0.1-0.3,0-0.4s0.3-0.1,0.4,0c0.3,0.2,0.6,0.3,1,0.3
		c0.1,0,0.3,0.1,0.3,0.2s-0.1,0.3-0.2,0.3C21,19.4,20.9,19.4,20.8,19.4z"/>
	<path class="st1" d="M20.4,18.1C20.3,18.1,20.3,18.1,20.4,18.1c-0.1,0-0.1-0.1-0.1-0.2c0.3-0.8,1.1-0.8,1.1-0.8
		c0.1,0,0.1,0,0.1,0.1c0,0.1,0,0.1-0.1,0.1C21.4,17.3,20.7,17.4,20.4,18.1C20.5,18.1,20.4,18.1,20.4,18.1z"/>
	<path class="st1" d="M22.9,15.9L22.9,15.9C22.8,15.9,22.8,15.8,22.9,15.9l0.3-2.1l-1.6,1.6h-0.1l-0.1-0.1v-2.4l-1.2,2
		c0,0.1-0.1,0.1-0.2,0c-0.1,0-0.1-0.1,0-0.2l1.4-2.4l0.1-0.1c0.1,0,0.1,0.1,0.1,0.1v2.6l1.7-1.7h0.1l0.1,0.1L23,15.7
		C23.1,15.8,23,15.9,22.9,15.9z"/>
	<path class="st1" d="M11.6,30.2c-0.5-1.6-1.2-3.2-2-4.4l0.6-0.4c0.8,1.2,1.5,3,2,4.6L11.6,30.2z"/>
	<path class="st1" d="M21,25.6l-0.3-0.6c1-0.4,1-0.6,1-0.6c0-0.1-0.4-0.2-0.7-0.2v-0.7c0.5,0,1.2,0.3,1.3,0.8
		C22.5,25.1,21.4,25.5,21,25.6z"/>
	<circle class="st1" cx="16.5" cy="13.1" r="0.5"/>
	<circle class="st1" cx="11.7" cy="12.6" r="0.5"/>
	<path class="st2" d="M10.2,13.8c-1.4,0-1.6,1.9,0,2.3C12.7,16.7,11.6,13.9,10.2,13.8z"/>
	<g>
		<path class="st1" d="M10.4,16.6C10.3,16.6,10.3,16.6,10.4,16.6c-1.2-0.3-1.7-1.1-1.6-1.8c0.1-0.7,0.7-1.4,1.8-1.4
			c0.1,0,0.2,0.1,0.2,0.2c0,0.1-0.1,0.2-0.2,0.2c-0.9,0-1.2,0.6-1.3,1.1c-0.1,0.5,0.2,1.1,1.2,1.3c0.1,0,0.2,0.2,0.2,0.3
			C10.6,16.5,10.5,16.6,10.4,16.6z"/>
	</g>
	<g>
		<path class="st1" d="M12.2,8.2L12,8.1c0,0,0.6-1.4,0.9-2.3c0-0.1,0.1-0.1,0.2-0.1c0.1,0,0.1,0.1,0.1,0.2
			C12.7,6.7,12.2,8.2,12.2,8.2z"/>
	</g>
	<g>
		<path class="st1" d="M13.3,5.2C13.3,5.2,13.2,5.2,13.3,5.2c-0.1-0.1-0.1-0.1-0.1-0.2c0.4-0.7,1-1.1,1.7-1.5c0.1,0,0.1,0,0.2,0.1
			c0.1,0.1,0,0.1-0.1,0.2C14.3,4.1,13.7,4.6,13.3,5.2C13.4,5.2,13.3,5.2,13.3,5.2z"/>
	</g>
	<g>
		<path class="st1" d="M15.7,3.5C15.6,3.5,15.6,3.5,15.7,3.5c-0.1-0.2-0.1-0.2,0-0.3c0.9-0.3,1.9-0.3,2.7-0.1c0.1,0,0.1,0.1,0.1,0.2
			c0,0.1-0.1,0.1-0.2,0.1C17.5,3.2,16.5,3.2,15.7,3.5L15.7,3.5z"/>
	</g>
	<g>
		<path class="st1" d="M9.1,20.5C9,20.5,9,20.4,9.1,20.5c-0.1-0.8,0-1.3,0.2-1.9c0-0.1,0.1-0.1,0.2-0.1s0.1,0.1,0.1,0.2
			c-0.2,0.5-0.3,1.1-0.3,1.7C9.2,20.4,9.1,20.5,9.1,20.5z"/>
	</g>
	<g>
		<path class="st1" d="M9.6,18C9.6,18,9.5,18,9.6,18c-0.1-0.1-0.1-0.1-0.1-0.2c0.3-0.4,0.6-0.6,0.6-0.6c0.1,0,0.1,0,0.2,0
			c0,0.1,0,0.1,0,0.2c0,0-0.2,0.2-0.5,0.5C9.7,18,9.6,18,9.6,18z"/>
	</g>
</g>
</svg>
