<?xml version="1.0" encoding="utf-8"?>
<!-- Generator: Adobe Illustrator 27.3.1, SVG Export Plug-In . SVG Version: 6.00 Build 0)  -->
<svg version="1.1" id="Capa_1" xmlns="http://www.w3.org/2000/svg" xmlns:xlink="http://www.w3.org/1999/xlink" x="0px" y="0px"
	 viewBox="0 0 500 217.8" style="enable-background:new 0 0 500 217.8;" xml:space="preserve">
<style type="text/css">
	.st0{fill:#231F20;}
	.st1{fill:#FFDE00;}
</style>
<g>
	<path class="st0" d="M60,217.5c-3.5-0.2-6.8-0.5-7.3-0.6c-1.9-0.6-7.2-1.6-14.1-2.6c-9.1-1.4-12.9-2.1-17.2-3.6
		c-4.9-1.6-7.7-3-8.8-4.3c-1.1-1.3-2.6-4-3.2-6c-0.7-2-0.7-5.9,0-7.8c0.6-1.7,2.3-3.4,4.4-4.6c0.8-0.4,2.1-1.4,3-2.2
		c2.9-2.7,5.2-3.5,9.8-3.3c2.5,0.1,3.8,0.3,7.1,1.2c4.1,1.1,4.1,1.1,10.8,1.3c9.4,0.3,34.7,0.4,37.8,0.2c1.6-0.1,3.3-0.1,4.8,0.1
		c1.8,0.3,2.9,0.2,5.9-0.1c2-0.2,3.7-0.5,3.8-0.6c0.4-0.4-4.7-4.6-9.6-7.9c-5-3.3-8.2-5.1-24.7-13.7c-12.2-6.4-19.8-11.1-23.8-14.9
		c-1.1-1-2.4-1.8-5.5-3.3c-4.4-2.1-6.5-3.7-13.5-9.9c-11-9.8-16.8-18.7-19-28.8c-0.8-3.8-0.8-10.7,0-14.6C2.4,82.9,6,75.9,12.2,69
		c2.7-3,5.8-5.7,11.7-10.2c7.4-5.6,10.7-7.7,17.6-11.4c7-3.7,23.8-11.2,29.4-13.1c5.5-1.9,12-3.2,18.1-3.9c3.7-0.4,12-0.4,15.4,0.1
		c13.2,1.7,23.7,8,29.2,17.6c0.8,1.5,1,2,1,3.4c0,0.9,0.3,3.5,0.7,5.7s0.7,4.9,0.7,5.9c0,3.5-1.1,6.2-3.3,8.4
		c-0.9,0.9-1.4,1.1-2.1,1.1c-0.9,0-1.1,0.2-2,1.4c-1.6,2.2-2.3,2.7-4.5,2.8c-4.3,0.2-7-2-8.9-7.4c-1.7-4.6-2.4-5.5-4.8-6.4
		c-0.8-0.3-2.4-0.9-3.5-1.4c-5.7-2.3-13.4-2.6-23.9-1c-7.3,1.1-12.3,2.3-21.5,5.3c-9.1,2.9-9.2,2.9-16,6.3c-9,4.5-10.6,5.5-12.2,7.3
		c-2.3,2.7-2.9,4.1-4.5,10.2c-1.8,6.3-0.9,11.5,2.8,17.1c2.3,3.4,7.7,8.7,15.2,14.9c3.4,2.8,7.3,6.1,8.6,7.3
		c3.8,3.4,11.7,8.5,29.7,18.8c16.3,9.3,24.5,14.4,31.5,19.4c4,2.9,5.3,4.4,7.3,8.4c1.2,2.3,1.2,2.3,1.2-0.8c0-4.8,1.1-11,3-16.7
		c0.7-2.1,0.7-2.1,0.9-18.3c0.2-17.7,0.3-19.3,2-26.3c0.7-3,0.7-3,3-3.1c2.2-0.1,2.2-0.1,2.7-2c0.5-1.9,0.5-1.9,3.5-2.1
		c4.6-0.2,6.3,0.4,8.3,3.1c2.3,3.3,3.3,6.2,4.4,13.4c0.4,2.3,0.8,4.8,1,5.6c0.6,2.2,1,7.6,0.8,10.8c-0.3,4.3-0.6,6.8-2,15.2
		c-1.9,11.3-2.2,15.6-1.5,20.9c0.3,2.4,0.3,2.4-0.7,4.4c-1.3,2.6-3.4,4.9-5.4,5.9c-0.8,0.4-2,1.3-2.6,2c-0.7,0.8-1.9,1.6-3.1,2.2
		c-2,0.9-2,1-5,1c-1.8,0-3.2-0.1-3.6-0.3c-0.8-0.5-2.6-2.9-3.6-5c-0.9-1.8-0.9-1.8-0.9,0.5c0,6.9-4.4,14.1-12.1,20
		c-1.6,1.2-3.8,2.9-5,3.8c-2.5,1.9-7.4,4.4-10.7,5.5c-2.8,0.9-6.6,1.8-10.3,2.3C84.5,217.8,68.5,218,60,217.5z M93.5,210.4
		c10.2-1.6,17.2-4.8,22.7-10.2c5.1-5.2,7.9-11,7.4-15.8c-0.3-3.7-2.5-8.7-5-11.7c-0.9-1.1-3.7-3.2-9.4-7c-6.2-4.2-11-7-24.6-14.8
		c-20.7-11.9-27.5-16.3-31.9-20.2c-1.4-1.3-4.9-4.3-7.7-6.6c-11-9-14.7-12.9-17.4-18.1c-2-3.8-2.3-5.4-2.3-10.5
		c0-3.9,0.1-4.7,0.6-6.5c0.3-1.1,0.8-2.8,1-3.6c1.2-5.1,4.8-9.6,10.6-13.5C39,71,43.7,68.4,48,66.2c7.9-4,7.9-4,17.4-7
		c9.8-3.1,14.6-4.3,21.9-5.4c7.6-1.1,13.9-1.3,19.1-0.7c3.5,0.5,5.7,1,8.5,2.3c1.1,0.5,2.4,1,2.9,1.1c2,0.4,3.5,2.5,5.4,7.6
		c1.4,3.7,3.1,5.5,5.5,5.8c1.1,0.1,1.2,0.1,2.3-1.2c2.2-2.4,2.6-5,1.5-10.7c-0.3-1.6-0.6-3.9-0.7-5.1c-0.2-2.4-0.8-3.7-3.2-6.7
		c-7.8-9.8-21.7-14.7-37.6-13.2c-9.4,0.8-17.5,3-27.3,7.3c-20.1,8.8-29.5,14-37.9,21C14.6,70.6,8.2,82.8,8.2,94.6
		c0,12.7,7.1,24.2,23.4,37.8c4.2,3.5,4.7,3.8,8.7,5.8c3.3,1.6,4.6,2.4,5.9,3.6c4.3,4,12,8.7,27.1,16.5c18.3,9.5,25.4,14,32.6,21.1
		c2.2,2.2,2.4,2.4,2.4,3.4c0,1,0,1.1-1.6,1.8c-5.2,2.5-12.9,3.6-22.8,3.2c-1.5-0.1-2.8,0-3.1,0.2c-0.4,0.2-7.1,0.2-21.8-0.1
		c-21.3-0.3-21.3-0.3-26.1-1.5c-5.6-1.4-7.1-1.6-8.9-1.2c-3,0.7-6,2.8-6.6,4.7c-0.7,2.5-0.1,5.7,1.7,8.6c1.2,1.9,1.8,2.4,4.2,3.6
		c5.1,2.4,10.3,3.6,21.7,5.3c7.4,1.1,11.3,1.8,13.7,2.5c2.1,0.6,12.8,1.1,22.7,1C88.5,210.9,90.5,210.8,93.5,210.4L93.5,210.4z
		 M143.6,182.8c1.7-0.9,3-2.2,4.1-4.2c0.7-1.2,0.7-1.2,0.6-6.9c-0.1-6.6,0-8.1,1.8-18.9c0.7-4.2,1.4-9,1.6-10.7c0.4-4,0.2-10-0.5-13
		c-0.3-1.3-0.8-3.9-1.1-5.9c-1-6.5-2.2-10-4.3-12.5c-1.3-1.4-2.2-1.9-4.5-1.9c-1.8,0-1.8,0-2.4,2.3c-1.5,6.5-2,12.7-1.8,23.6
		c0.1,4.6,0.1,10.1-0.1,13c-0.2,4.6-0.3,5.3-1.1,8c-1.3,4.2-2.2,8.6-2.6,11.9c-0.5,5.3,0.5,10,3,13.8c1.5,2.2,1.9,2.4,4.3,2.2
		C141.6,183.7,142.7,183.4,143.6,182.8L143.6,182.8z"/>
	<path class="st0" d="M437.4,192.8c-1.4-0.3-3.2-1.5-4.3-2.9c-1.6-2.1-2.1-3.1-2.1-4.9c0-4.9,2.2-8.9,6.1-11.2
		c0.7-0.4,2-1.4,2.8-2.1c2.8-2.5,5.1-3.5,11.7-5.1c2.4-0.6,5.1-1.3,6-1.6c1.8-0.6,3.9-2.3,3.9-3c0-0.8-3-4.8-5.2-7.1
		c-1.2-1.2-4.1-3.9-6.4-5.9c-5.3-4.5-8.5-7.9-9.7-10c-1-1.6-1-1.6-1,3.3c-0.1,8.5-1.5,13.8-5.1,18.7c-1.3,1.8-5,5.3-5.9,5.5
		c-0.4,0.1-1.6,1-2.8,2.1c-2,1.8-2.2,2-4.1,2.4c-2.3,0.5-5.2,0.4-7.2-0.3c-1.2-0.4-4.7-2.6-6.6-4.2c-0.8-0.7-0.8-0.7-1.2,0.2
		c-1.8,4.3-3.7,6.8-6.1,7.9c-0.9,0.4-2,1.3-2.7,2.1c-2.5,2.7-5.3,3.4-9.4,2.5c-1.3-0.3-2.6-0.7-2.7-0.8c-0.3-0.2-0.3-0.8,0.3-9
		c0.1-1.5,0.1-1.5-0.8-0.4c-1.5,1.9-3.9,4.1-6.2,5.6c-1.1,0.8-2.8,2.1-3.7,2.8c-2.6,2.2-5.1,3.2-9.5,4c-7.3,1.3-13.5,1.3-17.5,0.1
		c-2.1-0.6-5.4-2.7-6.8-4.4c-2.2-2.5-3.8-5.8-4.8-9.6c-0.3-1-0.5-1.9-0.7-1.8c-0.1,0.1-0.8,0.8-1.6,1.8c-0.8,0.9-2.4,2.4-3.6,3.3
		c-1.2,0.9-2.9,2.2-3.8,2.9c-5.7,4.6-11.8,6.9-21.8,8.3c-5.3,0.7-6.5,0.7-9.5-0.4c-6.1-2.2-7.6-3.5-8.7-7.9
		c-0.8-3.2-0.9-3.8-0.6-5.4c0.5-3.3,2.5-6.1,5.2-7.4c0.9-0.4,2-1.3,2.7-2.1c1.8-1.9,3.4-2.7,6-2.7c1.1,0,2.5-0.1,3.1-0.3
		c1.9-0.5,5-1.6,5-1.8c0-0.1-1.2-1.5-2.6-3.2c-3.3-3.7-5.5-6.5-6.9-8.5c-0.6-0.9-1.1-1.6-1.2-1.6c-0.1,0-0.3,0.5-0.6,1.3
		c-0.9,2.4-3.6,5.4-6.1,6.6c-0.6,0.3-1.7,1.2-2.5,1.9c-3.3,3.3-9,4.8-18.2,4.8c-1.8,0-4.1,0.1-5.1,0.2c-2,0.2-2,0.2-2,1.6
		c0,0.8,0.3,2.7,0.5,4.2c0.5,2.7,0.5,2.7-0.1,4c-0.8,1.7-2.6,3.6-4.4,4.4c-0.8,0.4-2.1,1.4-3,2.3c-1.9,1.9-3.7,2.7-6.8,2.9
		c-2.7,0.2-3.9-0.2-5.5-1.5c-2.2-2-3.1-4-4.1-9.8c-0.6-3.4-1.2-5.2-2-5.5c-0.2-0.1-1.3-0.2-2.3-0.2c-1.9,0-1.9,0-2.1,4.9
		c-0.1,4.1-0.9,11.4-1.4,14c-0.2,0.9-2.9,3.6-4.6,4.5c-0.8,0.4-2.1,1.4-3,2.3c-2.2,2.1-4.1,3-8.8,4c-0.7,0.2-0.8,0-1.9-1.5
		c-1.4-2-3-5.2-3.7-7.5c-0.4-1.4-0.5-2.6-0.5-6.3c0-4.6,0-4.6,1.8-15.5c0.1-0.7,0.1-0.7-1.5,0.6c-0.9,0.7-1.9,1.5-2.3,1.7
		c-0.4,0.2-1.6,1.1-2.8,2.1c-1.1,0.9-3,2.2-4.2,2.8c-2.3,1.2-2.8,1.2-5.8,0.2c-3.5-1.1-6.6-3.9-8.7-7.9c-1.2-2.2-1.2-2.2-1.4,3.7
		c-0.1,4.2-0.3,6.6-0.7,8.3c-1,5-4,9.1-7.1,9.9c-0.4,0.1-1.1,0.7-1.5,1.3c-1.6,2.1-3.6,3.1-6.5,3.1c-3.4,0-6.5-2-9.7-6.4
		c-1.5-2-1.5-2-1.3-3.3c0.5-2.7,1.3-10,1.8-17.1c0.6-8.4,1.1-13.8,1.7-17.6c1.5-9.8,4.6-17.6,9.7-24.4c1.3-1.7,1.5-1.9,2.4-1.9
		c1.3,0,1.7-0.3,3.2-2.4c1.3-1.8,1.4-1.8,2.4-1.8c0.6,0,2.3-0.3,3.7-0.7c4.9-1.2,7.4-0.7,10.2,2.1c1.6,1.6,3.9,4.9,5.1,7.3
		c0.5,1,2.9,7,3.7,9.4c0.2,0.4,0.4,0,1.1-1.7c2-4.7,4.3-7.6,7-8.9c0.7-0.4,2-1.3,2.7-2c2.9-2.8,6.7-3.9,11.1-3.1
		c1.9,0.3,2,0.4,3.3,1.8c0.7,0.8,1.8,2.5,2.5,3.8c1.8,3.5,2.1,5.7,1.8,13.3c-0.2,5.1-0.1,6.4,0.3,8.8c0.2,1.5,0.5,2.8,0.5,2.8
		c0.1,0.1,0.6-0.3,1.3-0.7c0.7-0.4,1.4-0.8,1.5-0.8c0.2,0,0.8-0.6,1.4-1.3c0.7-0.8,1.8-1.6,3-2.2c1.9-1,1.9-1,1.9-4.5
		c0-7.3,1.8-12.5,8-23.2c2.9-5.1,2.9-5.1,4.4-5.7c2.4-1,2.7-1.2,3.4-2.4c0.6-1,0.9-1.2,3.8-2.4c6.7-2.8,10.1-3.4,14.1-2.5
		c1.8,0.4,2.5,0.7,5.1,2.5c6.5,4.4,10.6,8.9,13.6,14.9c1.1,2.2,1.1,2.2,2.1,0.5c2.4-4.1,5.6-7.3,11.5-11.9c5.5-4.2,9.1-6.6,14-9.2
		c4.2-2.2,6.2-3,9.7-3.6c9.2-1.6,15.1,1.7,16.7,9.2c1,4.9-0.6,8.7-4.4,10.5c-1,0.5-2,1.2-2.5,1.9c-1,1.2-3.3,2.6-5.1,3.1
		c-0.6,0.2-2.4,0.5-4.1,0.8c-3.8,0.7-5.3,1.2-6.4,2.1c-0.7,0.6-1.1,0.8-1.7,0.7c-0.7-0.1-0.9,0-2,1.7c-1.4,2.1-1.5,2.9-0.7,5.6
		c0.9,3,2.7,5.8,8.2,12.4c3.8,4.5,6.6,8.4,7.6,10.7c0.3,0.7,0.7,1.2,0.7,1.2c0.2,0,4.6-6.8,5.5-8.5c1.4-2.8,1.8-5.3,1.4-8.2
		c-0.2-1.1-0.2-1.2,0.7-1.8c0.5-0.3,2-1.8,3.3-3.2c1.6-1.8,3-2.9,3.9-3.4c0.8-0.4,2.1-1.4,3-2.2c4-3.7,7.5-3.7,11.5,0
		c2.2,2.1,4.1,3.1,6.7,3.5c1.3,0.2,2.3,0.6,3.2,1.1c4.3,2.7,8.2,7.4,10.5,12.6c0.8,1.9,0.8,1.9,1,0.5c0.4-3,2.6-5.9,5-6.6
		c0.8-0.2,1.4-0.6,2-1.5c0.5-0.6,1.5-1.5,2.2-2c1.2-0.7,1.5-0.8,3.7-0.8c2.4,0,2.4,0,6.2,1.9c2.1,1,4.1,2,4.5,2
		c0.9,0.2,3.5,2.6,4.8,4.5c0.5,0.8,1,1.4,1.1,1.4c0.2,0-0.2-1.7-0.7-3.5c-0.3-1-1.6-4.6-3-8c-3.3-8.3-3.8-10.4-3.9-14.9
		c0-4.7,0.4-6.5,1.8-8.1c1.1-1.2,2.7-2.1,3.8-2.1c0.3,0,0.6-0.2,0.6-0.4c0-0.7,2.1-2.7,3.4-3.3c1.7-0.7,3.6-0.6,6,0.4
		c0.9,0.4,2.2,0.9,2.9,1c1,0.3,1.4,0.6,2.6,2.1c1.9,2.6,3.6,6.1,5.4,11.5c1.6,4.7,1.6,4.7,2.4,2.1c1.8-5.6,4.7-10.2,9.5-14.8
		c2.4-2.3,10.6-8.7,16.1-12.7c1.1-0.8,2.7-2,3.5-2.7c4.1-3.4,9-4.9,14.6-4.6c6.7,0.4,12.4,3.4,15.7,8.3c0.9,1.3,1,1.6,1,3.3
		c0,1,0.3,3.7,0.7,5.9c0.4,2.2,0.7,4.5,0.7,5.3c0,4.5-2.8,9.1-5.8,9.5c-0.5,0.1-1,0.2-1,0.4c0,0.1-0.7,1-1.6,1.9
		c-1.5,1.6-1.7,1.7-3,1.9c-1.8,0.2-4.4-0.2-6-1.1c-0.7-0.4-1.9-1.3-2.6-2.1c-1.3-1.5-1.3-1.5-1.1-4.8c0.2-3.3,0.2-3.3-1.2-3.2
		c-2.1,0.2-4.4,0.9-5.9,1.6c-3.6,1.7-7.8,9.6-8.1,15.4c-0.1,2.4-0.1,2.4,1.2,4.1c1.6,2.2,4.4,4.8,9.5,9c7.7,6.4,11.3,10.6,13.1,15.2
		c0.7,1.8,0.8,2.6,0.9,4.9c0.2,3.4-0.3,5.6-1.9,8.9c-2.5,5.1-8.5,11.7-16.4,17.5c-5.7,4.3-8,5.7-11.9,7.6c-5,2.4-10.2,3.8-16,4.3
		C438.9,193.1,438.5,193.1,437.4,192.8L437.4,192.8z M452.8,185.1c10.9-2.5,20.8-9,28.4-18.8c3.1-3.9,4.8-8.6,4.5-11.7
		c-0.4-3.7-2.6-7.8-6.5-11.7c-1.2-1.2-4.4-4.1-7.1-6.4c-5.4-4.6-9.3-8.4-10.4-10.3c-1.8-3.1-0.9-8.9,2.3-15.5c1.1-2.3,1.8-3.3,3.4-5
		c2.5-2.7,5.2-4.8,8-6.1c2.8-1.3,4.7-1.8,7.8-2c2.3-0.2,2.5-0.1,3.2,0.4c0.8,0.6,0.8,0.6,0.7,4.1c-0.1,3.5-0.1,3.5,1.3,4.7
		c1.4,1.3,2.8,1.9,4.5,1.9c0.8,0,1.2-0.2,2-1c2.4-2.5,2.7-4.9,1.7-11.3c-0.4-2.2-0.7-4.6-0.7-5.3c0-1-0.2-1.4-1-2.5
		c-3.3-4.2-8.6-6.7-14-6.7c-4.4,0-7.9,1.4-12,4.7c-1.4,1.1-3.9,3-5.5,4.2c-6.2,4.5-9.6,7.6-12.3,11.2c-6.5,8.7-7.9,21-3.5,30.1
		c1.2,2.5,4,5.5,10.3,11c6.8,5.9,9.8,9.2,11.6,12.8c1.3,2.7,1.3,3-1.9,6c-4.5,4.4-6.3,5.3-14.3,7.3c-9.8,2.4-12.7,4.5-13.8,9.9
		c-0.4,2-0.4,2,0.3,3.3c0.8,1.4,1.9,2.6,3.1,3.3C444.1,186.3,448.8,186,452.8,185.1L452.8,185.1z M224.7,179.1
		c1.1-0.5,2.3-1.4,3.1-2.1c1.4-1.4,1.5-1.6,2.2-7.7c1.1-9.4,0.6-22-1.1-30.3c-0.3-1.5-0.4-3.7-0.3-9.5c0-8.5-0.1-9.2-1.7-12.6
		c-1.2-2.5-2.7-4-4.5-4.3c-2.8-0.5-5.6,0.6-8,3.2c-1.9,2-3.5,5.5-5.7,11.9c-0.9,2.8-2,5.7-2.4,6.5c-0.7,1.4-0.7,1.4-1.9,1.4
		c-1.1,0-1.2-0.1-1.9-1.2c-0.9-1.4-2.6-5.6-4.4-10.6c-2.2-6.1-4.3-9.8-7.1-12.7c-2.1-2.2-3.7-2.6-7.3-1.6c-1.1,0.3-2.4,0.5-2.9,0.5
		c-0.9,0-1.1,0.2-2,1.4c-4.3,5.7-7.2,12.5-8.8,20.7c-0.9,4.5-1.4,8.8-2,17.4c-0.7,9-1,12.4-1.5,16.3c-0.4,3.1-0.4,3.1,0.4,4.2
		c1.9,2.8,5.5,5.4,7.3,5.4c3,0,5.7-3.1,7-8c0.3-1.1,0.5-3.5,0.6-8.8c0.2-6.1,0.3-7.5,0.8-9.3c0.4-1.6,0.6-3.3,0.8-7.1
		c0.2-5.4,0.3-6,1.1-7.5c0.6-1.1,1.2-1.5,2.4-1.5c0.9,0,0.9,0.1,1.7,1.9c0.4,1,1.4,4.1,2.2,6.7c2,6.5,3.6,9.7,5.9,12.1
		c2,2,4.7,3.4,6.3,3.4c1.7,0,5.4-2.8,8-6c1.6-2,4.2-5.8,5.3-7.8c0.6-1.2,0.7-1.2,1.8-1.2c1.1,0,1.1,0,1.2,1.1
		c0.5,4.6,0.3,8.8-0.9,16.3c-1.1,6.5-1.2,10.5-0.3,13.5c0.7,2.2,1.6,4,2.7,5.7C221.6,180.5,221.8,180.5,224.7,179.1L224.7,179.1z
		 M310.2,175.1c10-1.5,16.4-4.2,20.9-8.9c3.2-3.4,5.1-7.9,4.8-11.6c-0.3-4.7-2.5-8.4-9.7-17.1c-6.7-8.1-8.8-12-8.8-17.1
		c0-1.8,0-1.8,2-4.9c3.2-4.8,4.6-6,7.5-6.2c1.1-0.1,1.9-0.3,2.5-0.8c1.2-0.8,2.7-1.2,7.1-2c4.3-0.8,6.5-1.8,7.7-3.5
		c0.9-1.3,1.2-3.3,0.7-5.4c-1.3-5.3-5.7-8.1-11.5-7.3c-3.8,0.5-5.9,1.2-9.7,3.2c-11.4,6-17.5,11.3-21.1,18.6
		c-2.9,5.9-2.7,11.6,0.6,18.6c2.1,4.4,4.5,7.8,9.9,13.8c1.4,1.6,3.1,3.7,3.8,4.7c1.1,1.6,1.2,2,1.3,3.5c0.2,2.3-0.1,2.6-3.2,2.7
		c-2,0.1-3.1,0.4-6.8,1.6c-3.8,1.3-4.8,1.5-6.9,1.6c-3,0.2-4.2,0.7-5.5,2.5c-1.6,2.2-1.9,3.9-1.1,6.9c0.8,3.3,2,4.6,4.9,5.7
		C304.9,175.8,304.8,175.8,310.2,175.1L310.2,175.1z M369.9,174.7c5-0.9,7-1.9,10.6-5.3c4.1-4,5.9-7.6,6.5-13.1
		c0.7-7-1-14.6-4.4-20.4c-2.2-3.7-7.9-9-9.7-9c-1.1,0-4.1-0.9-5.4-1.7c-0.7-0.4-2-1.5-3-2.4c-3.6-3.3-4.6-3.1-10.2,3
		c-1.8,1.9-1.8,1.9-1.8,4.1c0,4-0.8,6.2-4.7,12c-2.9,4.5-3.7,5.9-4.5,8.2c-1,3.1-1,4.2,0.1,8.4c1.3,5.2,1.9,6.8,3.1,9.2
		c1.9,3.8,5.6,6.7,9.4,7.6C358.5,175.8,365.2,175.6,369.9,174.7L369.9,174.7z M398.8,172.1c1.5-0.7,2.8-2.3,4.2-5.2
		c3.1-6.5,3.3-6.9,4.5-8.2c1.1-1.1,1.4-1.3,2.3-1.3c1.3,0,2.9,0.9,6.2,3.3c3.6,2.7,5.5,3.6,7.8,3.6c2.3,0,3.3-0.4,5.3-2.3
		c3.8-3.6,6.1-8,7-14c0.3-2,0.3-4.7,0.2-14.4c-0.2-11.9-0.2-11.9-2.1-17.5c-2.1-6.3-3.2-9.1-4.5-11.3c-1.4-2.5-2.5-3.7-3.3-3.9
		c-0.4-0.1-1.5-0.5-2.5-0.9c-2-0.9-2.8-1-3.9-0.4c-1.3,0.7-1.8,1.5-2.3,3.8c-0.8,4,0,7.7,3.8,17.2c3.1,7.7,3.7,9.8,3.7,14.3
		c0,3.8-0.3,5.2-1.6,7.9c-0.8,1.6-0.8,1.6-2.5,1.6c-2.7,0-3.3-0.5-6.5-5.4c-2.3-3.4-3.7-4.9-5.2-5.4c-0.6-0.2-2.2-0.9-3.6-1.7
		c-1.4-0.8-3.3-1.6-4.1-1.8c-1.5-0.4-1.5-0.4-2.7,0.2c-1.8,0.9-2.6,2.3-3.1,4.9c-0.8,5.2-1.2,10.7-2,28.1c-0.2,3.4-0.3,6.8-0.4,7.5
		c-0.2,1.2-0.2,1.2,0.9,1.5C396.7,173,397,173,398.8,172.1L398.8,172.1z M256.3,167.5c1.3-0.4,3-1.7,3.9-3c0.7-1,0.7-1,0.3-2.7
		c-0.2-0.9-0.4-3.1-0.4-4.9c0-2.8,0.1-3.3,0.7-4.5c0.4-0.9,1-1.6,1.8-2.1c1.9-1.3,4.1-1.6,11.7-1.9c3.9-0.1,7.8-0.4,9.1-0.6
		c5.1-0.9,8.4-3.1,10.2-6.8c0.8-1.7,0.9-2.2,1.2-5.5c0.8-9.9-1.2-18.5-6.1-25.7c-1.8-2.7-5.3-6.2-8.5-8.6c-6.6-5-8.8-5.1-18.1-1.3
		c-2.5,1-2.5,1-4.7,4.8c-6.5,11.1-8.3,16.4-8.2,24.3c0.1,5.6-0.3,6.1-5,7.7c-2.4,0.8-4.1,1.6-5.2,2.5c-0.8,0.6-0.8,0.7-0.7,2.8
		c0,2.4,0.7,5.3,1.7,7.6c0.7,1.5,0.7,1.5,2.2,1.5c3.3,0,4.4,1.5,5.4,7.7c0.7,4.2,1.4,6,2.8,7.6C252,168,253.4,168.3,256.3,167.5
		L256.3,167.5z"/>
	<path class="st0" d="M359.2,160.8c-0.3-0.1-0.9-0.5-1.3-0.9c-0.6-0.8-0.7-1-0.7-3.6c0-6.8,1.8-12.2,5-15.1c1.4-1.3,2-1.5,4.2-1.5
		c2.3,0,3.6,0.6,5.3,2.4c1.2,1.3,2.5,3.6,2.5,4.5c0,0.3-0.3,1.6-0.8,3c-0.4,1.4-1.1,3.5-1.5,4.8c-1.3,4.2-2.8,5.7-6.4,6.2
		C363.7,160.9,360.3,161,359.2,160.8z M363.8,158c0,0,0.5-1.6,1.1-3.6c1-3.5,1-3.5,0.4-4.6c-0.7-1.2-2.6-3-3.1-3c-0.8,0-2,5-2.1,8.6
		c-0.1,2.4-0.1,2.4,0.6,2.6C361.2,158.3,363.5,158.1,363.8,158L363.8,158z"/>
	<path class="st0" d="M266,135.3c-0.4-0.1-1.1-0.6-1.6-1c-0.8-0.8-0.8-0.8-0.4-5.6c0.4-5.4,0.8-8.3,1.8-10.8c0.8-2,2.4-4.4,3.8-5.6
		c1-0.8,1.1-0.8,2.4-0.7c2.5,0.3,5.3,2.1,7,4.5c1.2,1.8,2.7,4.9,4,8.5c2.4,6.6,1.6,8.1-5,9.5c-1.2,0.2-2.6,0.6-3.2,0.8
		C273.6,135.4,267.1,135.7,266,135.3z M274.1,132.2c1.5-0.4,1.5-0.4-0.1-4.4c-1.4-3.5-2.8-5.8-4.3-7.3c-1.3-1.1-1.3-1.1-1.6-0.3
		c-0.5,1.3-1.1,5.3-1.3,8.9c-0.1,2.6-0.1,3.3,0.2,3.5C267.4,132.8,272.4,132.6,274.1,132.2z"/>
	<path class="st0" d="M481.7,180c0-2.1,0-2.1-0.8-2.1c-0.5,0-0.8-0.1-0.8-0.4c0-0.3,0.4-0.4,2-0.4c1.6,0,2,0.1,2,0.4
		c0,0.3-0.3,0.4-0.8,0.4c-0.8,0-0.8,0-0.8,2.1c0,1.7-0.1,2.1-0.4,2.1C481.8,182.1,481.7,181.7,481.7,180z"/>
	<path class="st0" d="M484.8,179.6c0-2.5,0-2.5,0.6-2.5c0.6,0,0.7,0.2,1.1,2c0.5,2.2,0.7,2.2,1.2-0.3c0.3-1.5,0.4-1.6,0.9-1.6
		c0.6,0,0.6,0.1,0.6,2.5c0,1.5-0.1,2.5-0.3,2.5c-0.2,0-0.3-0.9-0.3-2.1c0-1.1-0.1-2.1-0.2-2.1c-0.1,0-0.4,0.8-0.6,1.8
		c-0.4,2.2-0.5,2.4-0.9,2.4c-0.2,0-0.5-0.8-0.9-2.1c-0.5-2.2-0.5-2.2-0.5,0c0,1.7-0.1,2.1-0.4,2.1
		C484.9,182.1,484.8,181.7,484.8,179.6z"/>
	<path class="st0" d="M236.2,80.8c-2.3-0.5-4.2-2.2-5.3-4.3c-1.2-2.5-1.9-7.4-2.2-15c-0.2-4-0.2-4-1-4.2c-1.6-0.3-3-1.5-3.8-3.4
		c-0.4-0.9-0.5-1.8-0.6-4.1c0-1.6-0.1-3.3-0.2-3.9c-0.2-1.1-0.2-1.1,0.9-1.5c2-0.8,3.6-2,4.5-3.4c1-1.5,1.8-3.2,1.6-3.6
		c-0.1-0.3-3.7,2.1-4.8,3.1c-2.6,2.4-6.5,4.3-9.7,4.8c-1.3,0.2-2.5,0.4-2.5,0.4c-0.1,0.1-0.4,6.2-0.7,13.7
		c-0.6,13.6-0.6,13.6-2.1,14.7c-0.8,0.6-2,1.4-2.7,1.7c-0.7,0.3-1.3,0.7-1.3,0.9c0,0.5-2.6,2.4-4.3,3.2c-1.3,0.6-1.9,0.8-3.4,0.8
		c-2.5,0-4-0.8-5.6-3.1c-1.2-1.7-1.2-1.7-1.2-13.8c0-11.5-0.1-12.3-0.6-14.2c-0.3-1.1-0.7-2.1-0.8-2.3c-0.1-0.1-2.4-0.3-5.1-0.5
		c-10.5-0.6-14.1-1.8-18.3-6.1c-2.2-2.3-2.2-2.3-1.9-4.1c0.9-3.9,2.7-6.6,5.3-7.9c0.9-0.4,2.2-1.4,3-2.2c3.1-3.2,6.2-3.7,13.7-2.1
		c2.5,0.5,5,1,5.6,1c1,0.1,1,0.1,1.3-1.3c0.5-2,1.8-4.5,3.3-6.2c1.5-1.7,4.3-3.9,4.7-3.7c0.1,0.1,0.6-0.3,1.1-0.8
		c0.5-0.5,1.6-1.5,2.4-2.1c1.4-1.1,1.6-1.1,2.6-1c2.8,0.5,6.2,3.2,7.5,6.1c0.8,1.8,0.9,3.6,0.1,5.6c-0.3,0.8-0.5,1.5-0.5,1.6
		c0,0.4,2.5-0.1,6.3-1.4c4.2-1.4,6.4-1.7,8.5-0.9c1.2,0.4,1.4,0.2,1.4-1.1c0-2.5,1.4-7.1,2.6-8.5c0.8-0.9,2.5-1.8,3.5-1.8
		c0.6,0,0.8-0.2,1.1-1c0.5-1.3,2-2.6,3.4-3c3.1-0.8,6.9,1.1,8.5,4.4c0.7,1.4,0.7,1.5,0.5,4.6c-0.1,1.8-0.4,5.6-0.7,8.7
		c-0.5,5.5-0.6,10.2-0.3,12.4c0.2,1.1,0.2,1.2,1.1,1.3c1.1,0.1,1.3-0.2,1.3-1.8c0-0.7,0.4-3.9,0.8-7.2c0.7-5.2,0.8-6.8,0.9-12.5
		c0.1-6.5,0.1-6.5,0.9-7.5c0.8-1,3.1-2.4,4-2.4c0.3,0,0.5-0.2,0.5-0.4c0-0.7,2.6-3,3.9-3.4c3.3-1.1,7.2,1,9.3,5
		c0.8,1.5,0.8,1.6,0.7,5.7c0,2.7-0.2,5.6-0.6,8.4c-0.7,4.8-1,11.7-0.6,11.2c0.1-0.1,0.7-1.3,1.2-2.6c1.6-3.9,4-8.4,6.1-11.6
		c2.3-3.5,6.5-7.8,9.5-9.9c1.1-0.8,3-2.1,4.2-3.1c2.7-2.1,5.4-3.5,8.6-4.6c2.1-0.7,2.7-0.8,4.5-0.7c2.5,0.2,4,0.8,7.6,3.2
		c3.4,2.3,4.2,3,5.7,6.1c3.8,7.3,4.7,14.9,2.6,22.2c-1.1,3.9-1.7,4.8-5.2,8.3c-1.7,1.8-3.9,3.7-4.8,4.4c-0.9,0.7-2.5,1.8-3.5,2.6
		c-4.1,3.2-7.5,5.1-11.5,6.4c-2.2,0.7-2.2,0.8-1.6,1.1c0.4,0.2,1.9,0.8,3.3,1.3c1.5,0.5,3,1.1,3.4,1.3c0.5,0.3,1.1,0.3,2.6,0.1
		c5.6-0.7,9.4-2.4,17.3-7.6c4.7-3.1,4.7-3.1,9-2.4c4.2,0.7,4.2,0.7,4.5,1.6c0.1,0.5,0.3,1.9,0.4,3.1c0.3,4.6-1.8,8.2-6.9,11.7
		c-1,0.7-2.6,1.9-3.5,2.6c-0.9,0.7-3.4,2.5-5.5,3.8c-2.1,1.4-4.3,2.9-4.8,3.4c-0.9,0.8-1.3,0.9-6.2,2c-8.3,1.7-12.9,2.1-17.1,1.6
		c-6.4-0.7-10.2-2.5-13.2-6.3c-1.9-2.4-4.7-6.5-5.7-8.5c-0.4-0.7-0.8-1.3-0.8-1.3c0,0.1-0.2,2-0.5,4.4c-0.2,2.4-0.5,5.3-0.7,6.6
		c-0.3,2.2-0.3,2.2-2.7,2.4c-2.7,0.2-2.5-0.1-2.9,2.6c-0.2,1.3-0.2,1.3-2.3,1.5c-5.8,0.5-10-1.4-11.3-5c-0.7-1.9-0.8-6.5-0.2-10
		c0.2-1.6,0.4-3.4,0.3-4c-0.1-1-0.1-1-1.4-1c-2.2,0.1-2.6,1.4-1.7,5.5c0.4,1.8,0.6,3.6,0.6,5.1c0,2-0.1,2.5-0.7,3.8
		c-1,2-3.3,4.1-4.5,4.1c-0.7,0-1,0.2-1.6,1.1c-0.4,0.6-1.3,1.5-2,2.1c-1.1,0.9-1.4,1-2.6,1C237.6,80.9,236.7,80.9,236.2,80.8
		L236.2,80.8z M244.6,73.5c1-0.8,2.2-2.5,2.5-3.9c0.2-0.7,0-1.9-0.4-4.1c-0.5-2.5-0.6-3.6-0.5-5.4c0.1-1.2,0.2-3.2,0.2-4.5
		c0-3.8,0.7-4.1,8-4.3c5-0.2,5-0.2,5.5,0.6c0.7,1,0.8,4.7,0.2,8.4c-0.5,3.4-0.4,6,0.4,7.8c0.9,2.1,3.3,3.3,6.5,3.3
		c1.5,0,1.7-0.1,1.8-0.6c0.2-0.9,0.6-4.6,1.5-14.4c0.8-8.6,0.8-8.6,2.5-10.3c1-1.1,1.7-2,1.7-2.3c0-0.3-0.5-1.1-1.1-1.8
		c-1.5-1.6-2.7-3.9-3.2-6c-0.6-2.6-0.5-8.8,0.3-15c0.9-6.8,0.9-10.1,0.2-11.7c-1.1-2.5-3.9-4.7-5.4-4.3c-0.4,0.1-1.1,0.5-1.5,0.9
		c-0.8,0.7-0.8,0.7-0.9,6.1c0,4.2-0.2,6.6-0.8,11.5c-0.7,5.6-1.3,10.9-1.4,14.2c-0.1,1.1-0.2,1.4-0.9,1.9c-1.2,0.8-2.6,0.9-7.2,0.7
		c-4.1-0.2-4.1-0.2-4.3-1.1c-0.6-1.9-0.6-10.9,0-17.1c0.8-8.4,0.8-9.3,0-10.5c-0.4-0.5-1.1-1.3-1.7-1.7c-2.3-1.6-4.1-1-5,1.6
		c-1,2.7-1.3,5.2-1.6,12.2c-0.3,8.9-0.8,11.8-2.5,14.6c-0.8,1.4-2.9,3.4-4.3,4c-1,0.5-1,0.5-1,3c0,2,0.1,2.8,0.5,3.6
		c0.6,1.1,1.5,1.9,2.4,1.9c0.8,0,1.6,0.6,2,1.5c0.2,0.4,0.3,2.5,0.4,4.7c0.2,4.6,0.8,10.7,1.3,12.5c0.5,1.7,1.6,3.4,2.4,4
		c0.5,0.4,2.1,1,2.9,1.1C243.7,74.2,244.1,73.9,244.6,73.5L244.6,73.5z M206.5,73.1c3-1.5,2.7,0,3.5-16.5c0.5-11.1,0.8-14.6,1.1-15
		c1-1.6,3-2.3,8.5-3c2.2-0.3,3.3-0.6,4.6-1.2c4.9-2.5,8.2-6,8.5-9.2c0.1-0.9,0-1.3-0.7-2.1c-0.4-0.5-1.4-1.3-2-1.7
		c-1.8-1-3.1-0.9-7.2,0.6c-3,1.1-3.7,1.3-6.1,1.4c-3.5,0.2-4-0.1-4-2.1c0-0.8,0.3-2.2,0.7-3.2c0.7-1.9,0.7-1.9,0.1-3.1
		c-0.7-1.6-2.3-3.3-3.9-4.1c-1.3-0.6-1.3-0.6-2.4,0.3c-1.4,1.1-3.3,3.7-3.9,5.2c-0.3,0.6-0.7,2.1-0.9,3.2c-0.4,2.2-1,3.3-2.6,4.5
		c-2,1.5-5.6,1.6-12.2,0.3c-5.2-1-6.7-1.2-8.5-0.7c-1.6,0.5-3.6,2.3-4.4,4c-1.1,2.5-1.1,2.5,0.7,4.3c3.5,3.4,7.2,4.5,16.5,5
		c7.1,0.4,6.5,0.2,7.3,2.6c1.2,3.6,1.3,5.3,1.2,17c-0.1,10.8-0.1,10.8,0.9,12.3c1,1.4,2.1,2.1,3.2,2.1
		C204.7,73.9,205.6,73.6,206.5,73.1L206.5,73.1z M307.4,69.6c1.5-0.2,4.6-0.8,6.8-1.3c3.9-0.8,4.2-0.9,5.4-1.9
		c0.7-0.6,2.6-1.9,4.3-3c6.4-4,8.7-6.4,9.6-9.8c0.3-1,0.1-3-0.3-3.4c-0.1-0.1-1.3-0.3-2.7-0.5c-2.6-0.4-2.6-0.4-4.7,1
		c-5.4,3.8-10,6.3-14,7.7c-5.3,1.8-8.7,1.8-12.7,0.3c-1.4-0.5-3-1.1-3.6-1.4c-1.7-0.6-3.1-1.6-3.9-2.8c-0.6-0.9-0.7-1.3-0.7-3.2
		c0-1.1,0.2-2.4,0.3-2.7c0.3-0.6,0.5-0.7,3.2-0.8c5.6-0.4,11.4-2.5,16.1-6c2.7-2,7-6.3,7.9-8c0.4-0.7,1-2.3,1.4-3.6
		c0.7-2.1,0.7-2.8,0.7-6.4c0-3.7-0.1-4.3-0.7-6.6c-0.8-2.9-2.1-5.9-3.5-8c-0.7-1-1.5-1.8-2.9-2.7c-3.2-2.1-4.8-3-6.2-3.4
		c-1.3-0.4-1.5-0.4-3.2,0.1c-8.8,2.7-15.5,9.3-20.7,20.4c-1.6,3.5-2.8,6.5-4.7,11.7c-1.3,3.7-1.3,3.9-1.3,6.8c0,6,1.9,11.4,6.3,18
		c4.1,6.2,5.9,7.7,10.3,9.1C297.8,70.3,301.4,70.4,307.4,69.6L307.4,69.6z"/>
	<path class="st0" d="M292.8,36.1c-0.7-0.8-0.4-3.4,0.6-5.6c0.5-1.1,1.1-2.4,1.3-3c0.3-1,5.5-8.9,6.7-10.2c0.4-0.4,1.2-1.1,1.9-1.5
		c1.1-0.7,1.4-0.8,3.3-0.8c2.6,0,3.7,0.6,4.5,2.5c0.6,1.7,0.6,5.8-0.1,8c-1.6,5.4-4.5,7.8-12.3,9.9
		C294.9,36.7,293.3,36.8,292.8,36.1L292.8,36.1z M298.7,32.6c1.5-0.4,2.8-1,3.1-1.3c1.3-1.4,2-6.7,1.1-8.3c-0.7-1.5-1-1.3-3.4,2.3
		c-1.2,1.9-2.2,3.5-2.2,3.7c0,0.2-0.4,1.2-0.9,2.3c-0.5,1.1-0.9,2-0.9,2.1C295.4,33.6,296.2,33.4,298.7,32.6z"/>
</g>
<g>
	<path class="st1" d="M63.1,213.6c-4.2-0.2-6.9-0.5-7.8-0.8c-2.4-0.7-6.3-1.4-13.7-2.5c-11.6-1.7-16.7-3-21.9-5.4
		c-2.4-1.1-3.3-2-4.6-4.7c-1.5-3.1-1.8-6.1-1-9.1c0.3-1.2,2.2-3,4-3.8c3.1-1.5,6-1.4,12.9,0.4c4.8,1.2,4.8,1.2,18.2,1.4
		c19,0.3,27.7,0.3,29.4,0c1.1-0.2,2.4-0.2,5.1,0c3.4,0.3,4,0.3,8-0.2c2.4-0.3,5.3-0.8,6.4-1.1c2.4-0.6,5.8-1.9,6.5-2.5
		c0.4-0.3,0.4-0.4-0.4-1.4c-1.2-1.5-5.9-5.6-9.3-8.2c-5.8-4.3-11.4-7.7-25-14.6c-15.1-7.8-22.8-12.5-27.1-16.5
		c-1.3-1.2-2.5-2-5.9-3.6c-4.1-2-4.5-2.3-8.7-5.8C11.6,121.4,4.7,110.1,4.7,96.6c0-12.5,6.2-24.5,17.7-34.1c8.4-7,17.8-12.3,37.9-21
		c7.9-3.4,14.1-5.4,21.2-6.5c20-3.3,36.4,1.2,45.3,12.4c2.4,3,3.1,4.3,3.2,6.7c0.1,1.1,0.4,3.5,0.7,5.2c0.7,4,0.8,7.6,0.1,9.5
		c-0.3,0.8-0.9,1.9-1.7,2.7c-1.2,1.3-1.2,1.3-3.1,1.2c-3.1-0.2-4.8-1.6-6.3-5.8c-1.9-5.1-3.4-7.2-5.4-7.6c-0.5-0.1-1.8-0.6-2.9-1.1
		c-7.8-3.5-17.7-3.6-34-0.2c-3,0.6-7.6,1.9-14,3.9c-9.5,3-9.5,3-17.4,7c-4.3,2.2-9,4.8-10.5,5.7c-5.9,3.9-9.4,8.4-10.6,13.5
		c-0.2,0.8-0.6,2.4-1,3.6c-0.5,1.8-0.6,2.7-0.6,5.7c0,4.2,0.4,6.1,2.3,9.7c2.7,5.3,6.4,9.1,17.4,18.1c2.8,2.3,6.3,5.2,7.7,6.6
		c4.3,4,11.2,8.3,31.9,20.2c13.6,7.8,18.3,10.7,24.6,14.8c8.4,5.6,9.1,6.2,11.4,10c2.6,4.3,3.6,9.7,2.7,14c-0.8,3.9-3.4,8.3-7.2,12
		c-5.4,5.4-12.5,8.6-22.7,10.2c-3.1,0.5-4.9,0.6-12.9,0.6C73.6,213.9,66.6,213.8,63.1,213.6z"/>
	<path class="st1" d="M440.5,188.9c-2.2-0.5-4.8-3.7-4.8-5.9c0-1.7,0.7-4.5,1.5-5.8c1.9-3.3,4.7-4.8,12.7-6.7
		c3.1-0.8,6.3-1.7,7.1-2.1c2.5-1.1,5-3,7.5-5.5c2.5-2.5,2.5-2.5,1.6-4.1c-1.9-3.7-4.8-6.9-11.6-12.9c-6.3-5.5-9.1-8.5-10.3-11
		c-1.6-3.4-2.4-6.6-2.5-11.2c-0.2-4.7,0.3-7.8,1.6-11.9c2.6-7.6,6.6-12.5,16.7-19.7c1.6-1.1,4.1-3,5.5-4.2c4.4-3.5,7.6-4.7,12.8-4.7
		c2.5,0,3.6,0.1,5.2,0.6c3,0.8,5.6,2.2,7.5,3.9c2.3,2.1,3.2,3.4,3.1,4.7c-0.1,0.5,0.2,2.9,0.6,5.3c1.2,7.3,0.7,10.5-1.8,13
		c-0.9,0.8-1.1,0.9-2.5,0.9c-2.4,0-3.9-0.6-5.5-2.1c-1.4-1.4-1.4-1.4-1.2-4.8c0.2-3.4,0.2-3.4-0.6-4c-0.7-0.5-0.9-0.6-2.6-0.4
		c-5.5,0.5-10.4,3.2-14.9,8.1c-1.6,1.7-2.3,2.7-3.4,5c-0.8,1.6-1.7,3.8-2,4.9c-0.8,2.4-1.3,5.9-1.1,7.1c0.5,2.4,3.8,6,11.2,12.3
		c8.2,6.9,11.4,10.7,12.9,14.9c2.3,6.6,0,13-7.6,21c-8,8.5-19.4,14.3-29.5,15.1c-1.1,0.1-2.6,0.2-3.3,0.2
		C442.1,189,441.1,189,440.5,188.9L440.5,188.9z"/>
	<path class="st1" d="M135.1,186.6c-0.6-0.1-1.1-0.7-2.1-2.2c-4-6-4.3-14.4-0.7-26.3c0.5-1.8,1.1-4.1,1.2-5.1
		c0.1-1,0.2-7.2,0.2-13.7c0-15.3,0.3-20.2,1.8-26.7c0.5-2.3,0.5-2.3,3.1-2.3c3.1,0,3.9,0.3,5.3,1.9c2.1,2.5,3.3,6,4.3,12.5
		c0.3,1.9,0.8,4.6,1.1,5.9c0.7,3,0.9,10.3,0.5,14.6c-0.2,1.6-0.8,6.1-1.5,10c-0.7,3.9-1.4,8.4-1.6,10.1c-0.4,3.5-0.5,9.6-0.1,12.4
		c0.3,2,0.3,2-0.6,3.6c-1.1,2.1-2.9,3.9-4.7,4.8c-1.1,0.6-1.9,0.7-3.5,0.8C136.8,186.7,135.5,186.7,135.1,186.6L135.1,186.6z"/>
	<path class="st1" d="M217.2,181.9c-1.4-2.1-1.9-3.3-2.6-5.5c-0.9-2.8-0.9-8.7,0.1-14.2c1-6,1.3-8,1.3-11.5c0-3.5-0.2-5.1-0.7-5.1
		c-0.2,0-0.6,0.5-0.9,1.2c-1.1,2-3.6,5.8-5.3,7.8c-1.7,2.1-3.3,3.5-5.4,4.9c-2.4,1.5-2.9,1.6-4.6,1.1c-2.4-0.7-4.1-1.6-5.9-3.5
		c-2.3-2.3-3.9-5.5-6-12.4c-1.4-4.4-2.6-7.8-3-8.2c-0.3-0.3-1.3,0.6-1.7,1.5c-0.7,1.5-0.8,2.1-1.1,7.5c-0.2,3.8-0.3,5.5-0.8,7.1
		c-0.5,1.8-0.6,3.2-0.8,9.3c-0.2,5.3-0.3,7.6-0.6,8.8c-1.1,3.9-3.3,7.1-5.4,7.7c-1.6,0.5-3.6,0.4-5-0.2c-1.4-0.6-3.9-2.8-5.4-4.9
		c-1-1.4-1-1.4-0.6-3.9c0.5-3.3,1.1-9,1.7-18.1c0.3-4.1,0.8-9.2,1-11.4c1.3-10,3.8-17.7,7.7-23.8c2.5-3.8,2.9-4.3,4-4.3
		c0.5,0,1.8-0.3,2.9-0.5c2.6-0.8,5.3-0.8,6.7-0.1c3.1,1.5,6.5,6.7,9.2,14.4c2.8,7.7,4.7,11.8,5.5,11.8c0.6,0,1.6-2.4,3.5-8
		c2.2-6.5,3.8-9.9,5.7-12c2.6-2.7,5.8-3.8,9.4-3.2c1.3,0.2,1.8,0.5,2.7,1.4c1.3,1.2,2.7,3.9,3.3,6.3c0.4,1.3,0.4,2.8,0.4,9.2
		c0,5.9,0.1,8,0.3,9.5c1.7,8.4,2.2,22.3,1.1,31.9c-0.7,6-0.8,6.2-2.1,7.6c-1.4,1.5-3.5,2.6-5.7,3.2c-0.9,0.2-1.7,0.4-1.8,0.4
		C218.3,183.4,217.7,182.7,217.2,181.9L217.2,181.9z"/>
	<path class="st1" d="M300.9,178.4c-0.2-0.1-1.5-0.6-3-1.1c-3.8-1.2-5.9-2.9-6.3-4.9c-0.1-0.4-0.3-1.3-0.5-2c-1.1-3.8,0.2-8,3.1-9.6
		c0.8-0.5,1.6-0.7,3.6-0.8c2.1-0.1,3.1-0.3,6.9-1.6c3.7-1.2,4.8-1.5,6.8-1.6c1.6-0.1,2.5-0.3,2.8-0.6c1.2-1-0.3-3.8-4.7-8.8
		c-5.4-6-7.8-9.5-9.9-13.8c-1.8-3.7-2.5-6.3-2.6-9.9c-0.2-4.1,0.3-6.8,2-10.2c3.6-7.3,9.7-12.6,21.1-18.6c6.6-3.4,13.4-4.4,17.7-2.5
		c1.5,0.7,3.4,2.5,4.2,3.9c1.4,2.8,1.7,6.6,0.7,8.8c-1.1,2.2-3.3,3.4-8.5,4.3c-4,0.7-5.3,1.1-6.7,2c-0.8,0.5-1.4,0.7-2.5,0.8
		c-2.6,0.1-4.2,1.4-7.4,6.1c-2.3,3.4-2.4,3.8-1.5,7.1c1,3.7,2.9,6.8,8.3,13.3c7.7,9.2,9.5,12.5,9.7,17.9c0.2,4.7-1.4,8.8-4.8,12.4
		c-4.5,4.7-11,7.5-20.9,8.9C303.2,178.6,301.3,178.7,300.9,178.4L300.9,178.4z"/>
	<path class="st1" d="M355.3,178.4c-4.3-0.3-6.8-1.4-9.5-4.2c-2.7-2.7-4-5.4-5.9-13.1c-0.9-3.4-0.9-4-0.8-6
		c0.3-3.9,1.2-6.1,5.2-12.2c3.9-6,4.7-8.2,4.6-12c-0.1-2.1-0.1-2.1,1.8-4.1c4.3-4.6,5.2-5.2,7.3-5.2c1.7,0,2.9,0.6,4.7,2.3
		c0.9,0.8,2.2,1.8,2.9,2.2c1.3,0.8,4.3,1.7,5.4,1.7c1.8,0,7.5,5.3,9.7,9c3.3,5.6,5,13,4.5,20.3c-0.2,3.7-0.5,5.3-1.3,7.3
		c-1.9,4.6-6.2,9.3-10.7,11.5c-1.5,0.8-7.6,1.9-11.1,2.1c-1.2,0.1-2.7,0.2-3.3,0.2C358.2,178.6,356.7,178.5,355.3,178.4z
		 M363.8,161.7c2.4-0.7,3.7-2.3,4.8-6c0.4-1.3,1-3.3,1.4-4.6c0.7-2.3,0.7-2.3,0.1-3.6c-0.8-1.6-2.7-3.7-4.1-4.4
		c-1.2-0.5-2.8-0.7-3.9-0.3c-0.9,0.3-2.7,2-3.6,3.3c-1.7,2.5-3.1,7.9-3.1,12.1c0,1.8,0.1,2.1,0.7,2.8c0.4,0.4,0.9,0.8,1.3,0.9
		C358.2,162.3,362.8,162,363.8,161.7L363.8,161.7z"/>
	<path class="st1" d="M391.6,175.5c-0.8-0.2-1.4-0.4-1.5-0.5c-0.1-0.1,0-2.2,0.1-4.8s0.4-7.7,0.5-11.4c0.4-10.7,1.1-18.9,1.9-23
		c0.5-2.5,2.7-4.6,4.9-4.6c1.5,0,3.6,0.7,6.4,2.2c1.4,0.8,3.1,1.5,3.6,1.7c1.5,0.5,2.9,1.9,5.2,5.4c3,4.5,3.9,5.4,5.7,5.4
		c0.8,0,0.9-0.1,1.7-1.6c1.3-2.6,1.6-4.2,1.6-7.2c0-3.6-0.7-6.3-3.5-13.1c-4.1-10.2-5-14.2-3.9-19.3c0.3-1.7,0.5-2.1,1.3-2.8
		c1.7-1.6,3.6-1.6,6.7-0.2c0.8,0.3,1.8,0.7,2.2,0.8c0.9,0.2,1.9,1.4,3.3,3.9c1.3,2.2,2.4,4.9,4.5,11.3c1.9,5.6,1.9,5.6,2.1,18.2
		c0.1,8.6,0.1,13.2-0.2,14.8c-0.8,6-3.2,10.9-7.1,14.5c-2.2,2.1-3,2.3-6.1,2.4c-2.4,0-2.7-0.1-4.3-0.8c-0.9-0.4-3-1.8-4.5-2.9
		c-1.5-1.1-3.3-2.4-4-2.7c-1.2-0.6-1.2-0.6-2.1,0.1c-1.3,1-2.4,2.7-4.2,6.7c-2.5,5.4-3.7,7-6.3,7.7
		C394.4,175.9,393.4,175.9,391.6,175.5z"/>
	<path class="st1" d="M248.7,170.5c-1-0.4-2.4-2-3.2-3.7c-0.3-0.7-0.9-3-1.3-5.2c-1.1-6.2-2.1-7.7-5.4-7.7c-1.5,0-1.5,0-2.2-1.5
		c-1.1-2.7-1.7-5.2-1.7-8.4c-0.1-3-0.1-3,0.7-3.6c1.1-0.9,2.8-1.7,5-2.4c2.6-0.8,4.2-1.7,4.7-2.5c0.4-0.7,0.5-1.3,0.5-5
		c0-2.9,0.2-5.1,0.5-6.6c0.9-4.9,3.2-10.2,7.8-18c2.2-3.8,2.2-3.8,5.3-5c5.5-2.2,8.6-2.8,11.6-2.3c2.1,0.4,3.9,1.3,7.3,3.9
		c11.2,8.4,16,20.1,14.6,36c-0.3,3.3-0.4,3.8-1.2,5.5c-1.8,3.7-5.1,5.9-10.2,6.8c-1.3,0.2-5.2,0.5-9.1,0.6
		c-7.6,0.3-9.8,0.6-11.7,1.9c-0.8,0.6-1.4,1.2-1.9,2.2c-0.7,1.4-0.7,1.5-0.5,4.5c0.1,1.7,0.3,3.7,0.5,4.5c0.3,1.3,0.3,1.5,0,2.1
		c-0.5,1.1-1.8,2.5-2.9,3.1C254.1,170.7,250.4,171.2,248.7,170.5L248.7,170.5z M271.3,136.2c0.7-0.2,2.1-0.5,3.3-0.8
		c4.2-0.9,6.1-2,6.1-3.8c0-1.8-3.4-10-5.2-12.6c-1.4-2.1-4-3.9-6.1-4.4c-0.9-0.2-2.4,0.9-3.8,3c-2,2.9-2.9,6.3-3.4,13.3
		c-0.3,4-0.3,4,0.4,4.8c0.4,0.4,1.1,0.9,1.5,1C265.2,136.9,269.9,136.7,271.3,136.2z"/>
	<path class="st1" d="M239.1,76.7c-2.2-0.7-3.4-2.1-4.2-4.8c-0.5-1.7-1.2-7.8-1.3-12.5c-0.1-2.1-0.2-4.3-0.4-4.7
		c-0.3-0.9-1.1-1.5-2-1.5c-0.9,0-1.9-0.7-2.4-1.8c-0.4-0.8-0.5-1.7-0.5-4.3c-0.1-3.3-0.1-3.3,1-3.9c1.5-0.8,3.6-2.7,4.4-4.1
		c1.7-2.8,2.1-5.7,2.5-14.6c0.2-7.1,0.6-9.7,1.6-12.3c0.5-1.4,0.8-1.6,1.8-2.2c1.1-0.5,1.4-0.6,2.6-0.3c1.7,0.4,3.4,1.8,4.2,3.2
		c0.6,1.3,0.6,1.5-0.3,11.5c-0.5,6.2-0.5,13.7,0,15.6c0.3,0.9,0.3,0.9,3.9,1.1c3.9,0.2,5.2,0,6.4-0.9c0.6-0.5,0.7-0.7,0.7-2.1
		c0-2.2,0.4-6.1,1.3-13.5c1-7.7,1.2-11.2,0.8-14.2c-0.2-2.4-0.2-2.4,0.4-3.1c1-1.1,1.9-1.5,3.3-1.5c2.2,0,4.5,1.8,5.7,4.4
		c0.8,1.7,0.7,6.1-0.2,13.1c-1.4,11-0.7,15.5,2.9,19.5c2,2.2,1.9,3.2-0.5,5.7c-1.7,1.8-1.7,1.8-2.6,11.7c-1,11.2-1.3,13.4-1.5,13.6
		c-0.3,0.3-4.8,0.1-6-0.3c-1.7-0.5-3-1.6-3.6-3c-0.8-1.7-0.9-5.5-0.3-9.3c0.5-3.5,0.4-5.8-0.2-6.8c-0.5-0.7-0.5-0.7-4.7-0.6
		c-4.5,0.2-5.7,0.4-6.6,1.4c-0.6,0.7-0.8,2.3-0.4,3.7c0.1,0.4,0.1,1-0.2,1.5c-0.5,1.2-0.4,2.7,0.3,6.3c0.8,3.8,0.7,5.2-0.4,7.1
		C243.1,76.7,241.5,77.5,239.1,76.7L239.1,76.7z"/>
	<path class="st1" d="M199.6,76.4c-0.4-0.2-1.3-1-1.8-1.8c-1-1.4-1-1.4-0.9-12.3c0.1-11.7,0-13.5-1.2-17c-0.8-2.4-0.1-2.2-7.3-2.6
		c-9.5-0.5-13.4-1.8-16.9-5.4c-1.8-1.8-1.7-1.7-0.8-4.5c1.3-3.7,4.7-5.8,8.9-5.4c1,0.1,3.7,0.6,6.2,1.1c6.1,1.3,8.5,1.2,10.5-0.3
		c1.6-1.2,2.2-2.3,2.6-4.5c0.4-2.5,1-3.9,2.4-5.8c1.2-1.6,3.5-3.7,4.2-3.7c0.9,0,3.6,1.5,4.6,2.6c1.2,1.3,2,3.1,2,4.3
		c0,0.5-0.3,1.7-0.7,2.7c-0.8,2.3-0.8,2.9,0,3.4c1.1,0.7,3.9,0.4,7.8-1.1c2.9-1,3.7-1.2,5.5-1.3c1.8,0,2.2,0.1,3.3,0.7
		c0.7,0.4,1.6,1.2,2,1.7c0.8,0.9,0.8,1.1,0.7,2.8c-0.1,2.3-0.9,3.9-2.7,5.9c-1.5,1.6-3.4,3-5.9,4.2c-1.3,0.7-2.3,0.9-4.6,1.2
		c-5.5,0.7-7.5,1.5-8.5,3c-0.3,0.5-0.5,3.9-1.1,15c-0.8,16.5-0.5,15-3.5,16.5C202.9,76.9,201,77,199.6,76.4z"/>
	<path class="st1" d="M294.6,72.9c-2.5-0.3-5.7-1.3-7.7-2.4c-1.9-1-3.7-3.1-6.7-7.6c-4.6-6.9-6.4-12.2-6.3-19c0-3.5,0-3.5,1.4-7.3
		c1.8-5.3,3-8.2,4.7-11.7c5.3-11.2,12-17.8,20.8-20.4c3.3-1,5.4-0.4,10.3,2.8c2,1.4,2.8,2.1,3.6,3.2c4.2,6.3,5.5,15.4,3.4,22.6
		c-1,3.3-1.7,4.5-4.5,7.4c-6.1,6.3-13.1,9.7-20.8,10.2c-2.7,0.2-2.9,0.2-3.2,0.8c-0.6,1.1-0.4,3.2,0.3,4.3c1.1,1.6,2.1,2.2,6.3,3.7
		c1.6,0.5,3.2,1.2,3.7,1.4c1.9,0.8,8.7-0.8,13.2-3c2.3-1.1,6.6-3.8,9.7-6c2.3-1.5,2.3-1.5,5.5-1c1.8,0.3,3.3,0.7,3.4,0.9
		c0.3,0.5,0.6,3,0.4,4.1c-0.7,3.6-3.2,6.3-9.8,10.5c-1.6,1-3.6,2.4-4.3,3c-1.2,1-1.5,1.1-5.4,1.9C304.7,72.8,298.7,73.4,294.6,72.9z
		 M295.3,36.9c4.3-1.2,7.3-2.6,9-4.2c4.1-3.8,5.1-12.1,1.8-14.2c-1.9-1.2-4.4-0.5-6.5,1.7c-1.2,1.3-6.4,9.1-6.7,10.2
		c-0.2,0.6-0.7,1.9-1.2,3c-0.9,2.1-1.1,3.4-0.6,4.1C291.4,38,291.4,38,295.3,36.9L295.3,36.9z"/>
</g>
</svg>
